<svg width="32" height="32" viewBox="0 0 32 32" fill="none" xmlns="http://www.w3.org/2000/svg">
<g clip-path="url(#clip0_2607_263536)">
<path d="M21.8966 10.9468H32.0019C31.1602 8.42097 24.4233 -3.36855 10.9492 2.52574C17.6865 2.52619 21.0549 8.42103 21.8966 10.9468Z" fill="#00D0FF"/>
<path d="M21.8966 21.0527H32.0019C31.1602 23.5785 24.4233 35.3681 10.9492 29.4738C17.6865 29.4733 21.0549 23.5785 21.8966 21.0527Z" fill="#00D0FF"/>
<path d="M2.52632 9.26318H11.7895C11.7895 9.26318 9.26316 10.9474 9.26316 16C9.26316 21.0527 11.7895 22.7369 11.7895 22.7369H2.52632C2.52632 22.7369 0 21.0527 0 16C0 10.9474 2.52632 9.26318 2.52632 9.26318Z" fill="#00D0FF"/>
</g>
<defs>
<clipPath id="clip0_2607_263536">
<rect width="32" height="32" fill="white"/>
</clipPath>
</defs>
</svg>
